<?xml version="1.0" encoding="utf-8"?>
<!-- Generator: Adobe Illustrator 24.0.2, SVG Export Plug-In . SVG Version: 6.00 Build 0)  -->
<svg version="1.1" xmlns="http://www.w3.org/2000/svg" xmlns:xlink="http://www.w3.org/1999/xlink" x="0px" y="0px"
	 viewBox="0 0 732 728" style="enable-background:new 0 0 732 728;" xml:space="preserve">
<style type="text/css">
	.st0{display:none;clip-path:url(#SVGID_2_);fill:#398787;stroke:#000000;stroke-width:2.2248;stroke-miterlimit:10;}
	.st1{clip-path:url(#SVGID_2_);}
	.st2{fill:#FFFFFF;stroke:#D8C77F;stroke-miterlimit:10;}
	.st3{font-family:'Century';}
	.st4{font-size:44px;}
	.st5{letter-spacing:2.18;}
	.st6{fill:#FFFFFF;}
	.st7{fill:#FFFFFF;stroke:#D8C77F;stroke-width:0.5;stroke-miterlimit:10;}
	.st8{clip-path:url(#SVGID_2_);fill:#FFFFFF;stroke:#FFFFFF;stroke-width:2.8957;stroke-miterlimit:10;}
	.st9{clip-path:url(#SVGID_2_);fill:none;stroke:#000000;stroke-width:2.1717;stroke-linecap:square;stroke-miterlimit:10;}
	.st10{fill:url(#SVGID_3_);}
	.st11{clip-path:url(#SVGID_2_);fill:none;stroke:#000000;stroke-width:0.7239;stroke-linecap:square;stroke-miterlimit:10;}
	.st12{clip-path:url(#SVGID_2_);fill:none;stroke:#000000;stroke-width:0.7239;stroke-miterlimit:10;}
	.st13{clip-path:url(#SVGID_2_);fill:none;stroke:#000000;stroke-width:5.0674;stroke-linecap:square;stroke-miterlimit:10;}
	.st14{fill:url(#SVGID_4_);}
	.st15{clip-path:url(#SVGID_2_);fill:none;stroke:#FFFFFF;stroke-width:2.1717;stroke-linecap:square;stroke-miterlimit:10;}
	.st16{fill:#D8C77F;}
</style>
<g id="Capa_1">
</g>
<g id="Capa_2">
	<g>
		<defs>
			<circle id="SVGID_1_" cx="360.5" cy="363.5" r="345.5"/>
		</defs>
		<clipPath id="SVGID_2_">
			<use xlink:href="#SVGID_1_"  style="overflow:visible;"/>
		</clipPath>
		<rect x="5" y="-4" class="st0" width="701" height="716"/>
		<g class="st1">
			<text transform="matrix(0.9171 0 0 1 324.8079 240.9205)" class="st2 st3 st4 st5">Geoscripting </text>
		</g>
		<g class="st1">
			<text transform="matrix(0.9171 0 0 1 324.8079 240.9205)" class="st6 st3 st4 st5">Geoscripting </text>
		</g>
		<g class="st1">
			<text transform="matrix(0.9171 0 0 1 274.2473 194.4229)" class="st7 st3 st4 st5">rbis </text>
		</g>
		<g class="st1">
		</g>
		<path class="st8" d="M248.49,150.63v-41.79c0,0,3.85-5.32,6.42,0v41.79H248.49z"/>
		<g class="st1">
			<g>
				<path class="st6" d="M251.7,148.11c-6.4-0.93-13.52,1-19.01,4.21c-4.87,2.84-8.82,7.05-11.5,12c-0.89,1.65-1.56,3.03-1.97,4.79
					c-1.1,4.73-1.6,9.61-1.51,14.45c0.12,6.61,1.6,13.2,5.36,18.73c4.88,7.18,13.3,10.69,21.66,11.76c1.55,0.2,3.11,0.32,4.66,0.41
					c1.8,0.1,4.47-0.69,5.55-2.23c1.16-1.65-1.01-2.17-2.21-2.24c-0.34-0.02-0.67-0.04-1.01-0.06c0.77,0.05-0.3-0.03-0.38-0.04
					c-0.63-0.06-1.26-0.14-1.89-0.22c-1.23-0.17-2.45-0.39-3.65-0.67c-0.5-0.12-1-0.24-1.49-0.38c0.65,0.18-0.21-0.07-0.28-0.09
					c-0.25-0.08-0.51-0.16-0.76-0.25c-1-0.34-1.99-0.73-2.95-1.17c-0.83-0.38-1.64-0.81-2.43-1.27c-0.2-0.12-0.4-0.24-0.59-0.36
					c0.46,0.29-0.17-0.12-0.21-0.15c-0.42-0.3-0.85-0.6-1.25-0.92c-1.33-1.04-2.55-2.22-3.63-3.53c-0.47-0.57-0.92-1.17-1.34-1.79
					c-0.55-0.8-0.64-0.96-1.15-1.92c-0.73-1.39-1.34-2.84-1.83-4.33c-0.96-2.9-1.48-5.93-1.7-8.97c-0.1-1.44-0.13-2.88-0.11-4.32
					c-0.01,0.5,0.01-0.33,0.02-0.48c0.01-0.34,0.03-0.68,0.05-1.02c0.04-0.7,0.09-1.41,0.15-2.11c0.2-2.14,0.5-4.27,0.93-6.37
					c0.21-1.05,0.4-2.15,0.74-3.17c0.47-1.4,1.31-2.75,2.09-3.99c1.42-2.25,2.95-4.12,4.64-5.62c0.5-0.44,1.01-0.86,1.54-1.25
					c0.15-0.11,0.3-0.22,0.44-0.32c0.33-0.23,0.3-0.21-0.1,0.07c0.15-0.1,0.29-0.19,0.44-0.29c0.5-0.32,1.02-0.62,1.55-0.9
					c0.21-0.11,0.43-0.25,0.66-0.34c-1.19,0.46-0.12,0.07,0.14-0.04c0.46-0.2,0.92-0.37,1.38-0.55c0.49-0.19,0.52,0.08-0.37,0.12
					c0.25-0.01,0.57-0.18,0.81-0.25c0.45-0.13,0.91-0.24,1.37-0.35c0.38-0.09,1-0.06-0.38,0.07c0.24-0.02,0.48-0.09,0.72-0.13
					c0.34-0.05,0.68-0.1,1.02-0.14c0.44-0.05,1.76,0,0.18-0.04c0.58,0.01,1.17-0.05,1.76-0.04c0.55,0.01,1.7-0.05,0.21-0.02
					c0.13,0,0.27,0.02,0.41,0.04c1.98,0.29,4.39-0.27,5.93-1.59C253.7,149.76,253.47,148.37,251.7,148.11L251.7,148.11z"/>
			</g>
		</g>
		<line class="st9" x1="252.35" y1="150.78" x2="252.35" y2="165.79"/>
		<line class="st9" x1="252.35" y1="196.04" x2="252.35" y2="211.52"/>
		<g class="st1">
			<linearGradient id="SVGID_3_" gradientUnits="userSpaceOnUse" x1="238.3386" y1="180.9" x2="265.6541" y2="180.9">
				<stop  offset="0" style="stop-color:#FFFFFF"/>
				<stop  offset="0.9972" style="stop-color:#00FF00"/>
			</linearGradient>
			<path class="st10" d="M252,168.62c6.73,0,12.21,5.51,12.21,12.28s-5.48,12.28-12.21,12.28s-12.21-5.51-12.21-12.28
				S245.26,168.62,252,168.62 M252,167.17c-7.54,0-13.66,6.15-13.66,13.73s6.11,13.73,13.66,13.73s13.66-6.15,13.66-13.73
				S259.54,167.17,252,167.17L252,167.17z"/>
		</g>
		<g class="st1">
			<path d="M176.86,414.97c5.52-17.17,11.16-34.29,16.89-51.38c1.44-4.27,2.83-8.56,4.31-12.81c1.49-4.25,3.22-8.41,4.75-12.65
				l9.44-25.32l37.77-101.27l2.38-6.39l2.37,6.39l53.03,143.16l26.51,71.58c2.21,5.97,4.41,11.93,6.68,17.87
				c1.09,2.99,2.06,6.02,3.07,9.04l3,9.06c4.02,12.08,7.98,24.18,11.91,36.29l0.04,0.12l0,0.08l-0.56,13.17l-0.56-13.17l0.04,0.2
				c-4.91-11.75-9.78-23.51-14.6-35.29l-3.62-8.83c-1.2-2.95-2.44-5.88-3.56-8.86c-2.15-5.99-4.36-11.95-6.58-17.91l-26.51-71.58
				l-53.03-143.16l4.75,0.01L217,314.59l-9.44,25.32c-1.61,4.21-3.03,8.48-4.69,12.67c-1.67,4.18-3.43,8.33-5.14,12.5
				C190.88,381.75,183.93,398.38,176.86,414.97z"/>
		</g>
		<path class="st11" d="M181.41,383.3"/>
		<path class="st12" d="M181.41,383.3"/>
		<path class="st13" d="M180.34,383.3"/>
		<g class="st1">
			<linearGradient id="SVGID_4_" gradientUnits="userSpaceOnUse" x1="64.476" y1="513.2741" x2="608.8091" y2="513.2741">
				<stop  offset="2.793296e-03" style="stop-color:#193B66;stop-opacity:0.5"/>
				<stop  offset="0.4134" style="stop-color:#FFFFFF"/>
			</linearGradient>
			<path class="st14" d="M177.65,414.73c-7.85,2.45-15.56,5.41-23.14,8.61c-7.57,3.23-15.02,6.77-22.26,10.67
				c-14.46,7.82-28.29,17.04-39.99,28.57c-5.82,5.77-11.08,12.14-15.23,19.19c-4.15,7.03-7.16,14.76-8.46,22.8
				c-0.66,4.01-0.91,8.09-0.75,12.16c0.18,4.05,0.65,8.15,1.72,12c1.07,3.88,2.99,7.49,5.26,10.81c2.3,3.31,4.98,6.39,8.01,9.11
				c3,2.74,6.2,5.28,9.6,7.54c3.36,2.32,6.9,4.38,10.48,6.35c7.21,3.87,14.73,7.18,22.39,10.13c15.33,5.87,31.2,10.34,47.19,14.15
				c16.01,3.79,32.19,6.86,48.44,9.48c16.25,2.61,32.58,4.77,48.95,6.57c16.37,1.8,32.77,3.25,49.2,4.37
				c8.2,0.53,16.46,1.08,24.62,1.29c8.21,0.17,16.44,0.16,24.67,0.06c32.9-0.47,65.81-2.61,98.34-7.25
				c16.25-2.35,32.41-5.38,48.27-9.49c7.92-2.06,15.77-4.4,23.46-7.13c7.69-2.72,15.24-5.83,22.47-9.5
				c7.22-3.68,14.17-7.89,20.4-12.94l2.28-1.95l1.14-0.97l1.08-1.04l2.15-2.08c0.7-0.7,1.34-1.46,2.02-2.19
				c1.39-1.43,2.55-3.03,3.78-4.58c0.63-0.76,1.12-1.63,1.68-2.43c0.52-0.83,1.15-1.61,1.58-2.49l1.43-2.58
				c0.25-0.42,0.46-0.87,0.65-1.32l0.6-1.34c0.87-1.77,1.44-3.64,2.07-5.5c0.17-0.46,0.3-0.93,0.4-1.41l0.34-1.43l0.34-1.43
				l0.17-0.71l0.1-0.73c0.27-1.94,0.63-3.88,0.66-5.85c0.46-7.86-0.82-15.83-3.25-23.47l-0.01-0.02l-0.08-0.35l-0.08-0.34
				c-0.03-0.14-0.06-0.28-0.11-0.43c-0.1-0.3-0.16-0.59-0.28-0.9c-0.21-0.61-0.44-1.22-0.71-1.82c-0.24-0.61-0.55-1.21-0.84-1.81
				c-0.28-0.61-0.62-1.19-0.96-1.78c-0.63-1.19-1.42-2.31-2.15-3.47c-0.83-1.09-1.57-2.25-2.47-3.3c-3.45-4.3-7.48-8.19-11.78-11.77
				c-8.72-7.04-18.46-12.9-28.64-17.85c-10.18-4.97-20.82-9.05-31.62-12.63c-5.37-1.88-10.87-3.37-16.33-5.01l-8.26-2.19l-4.13-1.1
				l-4.16-0.98c-22.19-5.31-44.76-9.1-67.45-11.95c-22.68-2.94-45.5-4.84-68.34-6.36l0.02-0.49c22.89,0.75,45.77,2.24,68.58,4.59
				c22.8,2.46,45.52,5.87,67.97,10.83l4.21,0.92l4.19,1.03l8.37,2.09c5.52,1.61,11.09,3.06,16.55,4.9
				c10.96,3.51,21.8,7.54,32.25,12.51c10.45,4.95,20.52,10.86,29.71,18.12c4.53,3.7,8.83,7.75,12.6,12.34
				c0.97,1.12,1.8,2.37,2.71,3.55c0.82,1.26,1.69,2.47,2.41,3.81c0.38,0.65,0.76,1.31,1.08,2c0.34,0.68,0.69,1.36,0.98,2.08
				c0.31,0.7,0.59,1.43,0.85,2.17c0.14,0.36,0.24,0.77,0.36,1.15c0.06,0.19,0.11,0.4,0.16,0.61c0.05,0.21,0.1,0.4,0.15,0.71
				l-0.09-0.36c2.58,8.06,4.02,16.63,3.54,25.24c-0.03,2.16-0.41,4.29-0.71,6.43l-0.12,0.8l-0.19,0.79l-0.37,1.58l-0.38,1.58
				c-0.11,0.53-0.25,1.05-0.44,1.56c-0.69,2.05-1.32,4.12-2.27,6.07l-0.65,1.48c-0.21,0.5-0.44,0.99-0.71,1.45l-1.56,2.84
				c-4.34,7.47-10.34,13.75-16.9,19.1c-6.61,5.31-13.87,9.66-21.34,13.43c-15,7.5-30.92,12.66-47,16.74
				c-16.1,4.05-32.43,6.99-48.82,9.25c-16.4,2.24-32.87,3.8-49.37,4.87c-16.5,1.06-33.01,1.65-49.54,1.79
				c-8.26,0.06-16.52,0.02-24.79-0.2c-8.32-0.27-16.52-0.86-24.77-1.43c-16.47-1.21-32.91-2.76-49.31-4.65
				c-16.4-1.89-32.77-4.15-49.06-6.86c-16.29-2.71-32.52-5.89-48.58-9.79c-16.05-3.92-31.99-8.49-47.41-14.54
				c-7.71-3.03-15.28-6.43-22.57-10.41c-3.63-2.02-7.21-4.14-10.61-6.54c-3.45-2.33-6.71-4.95-9.77-7.8
				c-3.09-2.82-5.85-6.01-8.22-9.48c-2.34-3.48-4.32-7.28-5.42-11.37c-1.11-4.11-1.54-8.26-1.69-12.43
				c-0.13-4.17,0.15-8.36,0.86-12.48c1.4-8.24,4.54-16.12,8.82-23.25c4.28-7.14,9.65-13.56,15.58-19.34
				c11.91-11.56,25.88-20.71,40.44-28.45c7.3-3.86,14.79-7.36,22.4-10.54c7.63-3.16,15.36-6.06,23.26-8.47L177.65,414.73z"/>
		</g>
		<g class="st1">
		</g>
		<g class="st1">
			<g>
				<path class="st6" d="M250.9,148.78c-5.86-0.85-12.39,0.95-17.41,3.88c-4.72,2.75-8.5,6.87-11.09,11.66
					c-0.86,1.59-1.48,2.91-1.87,4.62c-1.08,4.67-1.59,9.49-1.51,14.28c0.11,6.54,1.55,13.11,5.27,18.58
					c4.8,7.07,13.01,10.53,21.26,11.59c1.45,0.19,2.91,0.3,4.38,0.39c1.21,0.07,3.13-0.47,3.84-1.54c0.75-1.15-0.65-1.5-1.53-1.55
					c-7.95-0.44-15.98-2.99-21.2-9.3c-3.97-4.8-5.67-11.04-6.1-17.16c-0.34-4.82,0.07-9.68,1.03-14.48c0.21-1.05,0.4-2.15,0.74-3.17
					c0.49-1.46,1.37-2.87,2.19-4.17c1.34-2.13,2.92-4.12,4.81-5.79c0.85-0.75,1.87-1.52,2.56-1.96c0.5-0.32,1.02-0.62,1.55-0.9
					c0.22-0.12,0.44-0.23,0.66-0.34c-0.59,0.29,0.32-0.14,0.43-0.18c0.46-0.2,0.92-0.37,1.38-0.55c0.18-0.07,0.69-0.22-0.03,0
					c0.27-0.08,0.54-0.17,0.81-0.25c0.45-0.13,0.91-0.24,1.37-0.35c0.19-0.05,0.86-0.15-0.03,0c0.24-0.04,0.48-0.09,0.72-0.13
					c0.34-0.05,0.68-0.1,1.02-0.14c0.25-0.03,1.52-0.1,0.51-0.06c0.59-0.02,1.17-0.05,1.76-0.04c0.19,0,0.38,0.01,0.57,0.02
					c0.64,0.02,0.06-0.06-0.07-0.01c0.09-0.03,0.3,0.03,0.41,0.04c1.37,0.2,3.03-0.19,4.1-1.1
					C252.28,149.92,252.12,148.96,250.9,148.78L250.9,148.78z"/>
			</g>
		</g>
		<line class="st15" x1="252.35" y1="150.78" x2="252.35" y2="165.79"/>
		<line class="st15" x1="252.35" y1="196.04" x2="252.35" y2="211.52"/>
		<g class="st1">
			<path class="st6" d="M252,194.38c-7.39,0-13.41-6.05-13.41-13.48c0-7.43,6.01-13.48,13.41-13.48s13.41,6.05,13.41,13.48
				C265.4,188.33,259.39,194.38,252,194.38z"/>
			<g>
				<path class="st16" d="M252,167.67c7.26,0,13.16,5.93,13.16,13.23s-5.9,13.23-13.16,13.23s-13.16-5.93-13.16-13.23
					S244.74,167.67,252,167.67 M252,167.17c-7.54,0-13.66,6.15-13.66,13.73s6.11,13.73,13.66,13.73s13.66-6.15,13.66-13.73
					S259.54,167.17,252,167.17L252,167.17z"/>
			</g>
		</g>
		<g class="st1">
			<path class="st6" d="M176.86,414.97c5.52-17.17,11.16-34.29,16.89-51.38c1.44-4.27,2.83-8.56,4.31-12.81
				c1.49-4.25,3.22-8.41,4.75-12.65l9.44-25.32l37.77-101.27l2.38-6.39l2.37,6.39l53.03,143.16l26.51,71.58
				c2.21,5.97,4.41,11.93,6.68,17.87c1.09,2.99,2.06,6.02,3.07,9.04l3,9.06c4.02,12.08,7.98,24.18,11.91,36.29l0.04,0.12l0,0.08
				l-0.56,13.17l-0.56-13.17l0.04,0.2c-4.91-11.75-9.78-23.51-14.6-35.29l-3.62-8.83c-1.2-2.95-2.44-5.88-3.56-8.86
				c-2.15-5.99-4.36-11.95-6.58-17.91l-26.51-71.58l-53.03-143.16l4.75,0.01L217,314.59l-9.44,25.32
				c-1.61,4.21-3.03,8.48-4.69,12.67c-1.67,4.18-3.43,8.33-5.14,12.5C190.88,381.75,183.93,398.38,176.86,414.97z"/>
		</g>
		<path class="st11" d="M181.41,383.3"/>
		<path class="st12" d="M181.41,383.3"/>
		<path class="st13" d="M180.34,383.3"/>
	</g>
</g>
</svg>
